REM DIRINDEX 1\2,1\3,1\4,1\5
REM DIRNAME "folder01","folder02","folder03","folder04","folder05"
TITLE ""
FILE "P1Q_t_0801-0809.mp3" MP3
  TRACK 01 AUDIO
    TITLE "0:"
    INDEX 01 00:00:00
  TRACK 02 AUDIO
    TITLE "2:cjc173_3346"
    INDEX 01 00:00:10
  TRACK 03 AUDIO
    TITLE "0:"
    INDEX 01 00:01:57
  TRACK 04 AUDIO
    TITLE "2:cjc173_3347"
    INDEX 01 00:02:29
  TRACK 05 AUDIO
    TITLE "0:"
    INDEX 01 00:03:34
  TRACK 06 AUDIO
    TITLE "3:cjc173_3348"
    INDEX 01 00:04:04
  TRACK 07 AUDIO
    TITLE "0:"
    INDEX 01 00:05:27
  TRACK 08 AUDIO
    TITLE "4:cjc173_3349"
    INDEX 01 00:05:47
  TRACK 09 AUDIO
    TITLE "0:"
    INDEX 01 00:08:73
  TRACK 10 AUDIO
    TITLE "5:cjc173_3350"
    INDEX 01 00:09:17
  TRACK 11 AUDIO
    TITLE "0:"
    INDEX 01 00:12:53
  TRACK 12 AUDIO
    TITLE "3:cjc173_3351"
    INDEX 01 00:13:27
  TRACK 13 AUDIO
    TITLE "0:"
    INDEX 01 00:14:38
  TRACK 14 AUDIO
    TITLE "4:cjc173_3352"
    INDEX 01 00:14:59
  TRACK 15 AUDIO
    TITLE "0:"
    INDEX 01 00:17:64
  TRACK 16 AUDIO
    TITLE "5:cjc173_3353"
    INDEX 01 00:18:08
  TRACK 17 AUDIO
    TITLE "0:"
    INDEX 01 00:21:71
  TRACK 18 AUDIO
    TITLE "3:cjc173_3354"
    INDEX 01 00:22:43
  TRACK 19 AUDIO
    TITLE "0:"
    INDEX 01 00:23:52
  TRACK 20 AUDIO
    TITLE "4:cjc173_3355"
    INDEX 01 00:23:74
  TRACK 21 AUDIO
    TITLE "0:"
    INDEX 01 00:25:46
  TRACK 22 AUDIO
    TITLE "5:cjc173_3356"
    INDEX 01 00:25:67
  TRACK 23 AUDIO
    TITLE "0:"
    INDEX 01 00:29:61
  TRACK 24 AUDIO
    TITLE "3:cjc173_3357"
    INDEX 01 00:30:33
  TRACK 25 AUDIO
    TITLE "0:"
    INDEX 01 00:31:48
  TRACK 26 AUDIO
    TITLE "4:cjc173_3358"
    INDEX 01 00:31:70
  TRACK 27 AUDIO
    TITLE "0:"
    INDEX 01 00:36:12
  TRACK 28 AUDIO
    TITLE "5:cjc173_3359"
    INDEX 01 00:36:32
  TRACK 29 AUDIO
    TITLE "0:"
    INDEX 01 00:41:48
  TRACK 30 AUDIO
    TITLE "3:cjc173_3360"
    INDEX 01 00:42:19
  TRACK 31 AUDIO
    TITLE "0:"
    INDEX 01 00:43:40
  TRACK 32 AUDIO
    TITLE "4:cjc173_3361"
    INDEX 01 00:43:57
  TRACK 33 AUDIO
    TITLE "0:"
    INDEX 01 00:46:36
  TRACK 34 AUDIO
    TITLE "5:cjc173_3362"
    INDEX 01 00:46:55
  TRACK 35 AUDIO
    TITLE "0:"
    INDEX 01 00:49:71
  TRACK 36 AUDIO
    TITLE "3:cjc173_3363"
    INDEX 01 00:50:43
  TRACK 37 AUDIO
    TITLE "0:"
    INDEX 01 00:51:63
  TRACK 38 AUDIO
    TITLE "4:cjc173_3364"
    INDEX 01 00:52:09
  TRACK 39 AUDIO
    TITLE "0:"
    INDEX 01 00:54:30
  TRACK 40 AUDIO
    TITLE "5:cjc173_3365"
    INDEX 01 00:54:49
  TRACK 41 AUDIO
    TITLE "0:"
    INDEX 01 00:59:64
  TRACK 42 AUDIO
    TITLE "3:cjc173_3366"
    INDEX 01 01:00:34
  TRACK 43 AUDIO
    TITLE "0:"
    INDEX 01 01:01:53
  TRACK 44 AUDIO
    TITLE "4:cjc173_3367"
    INDEX 01 01:01:75
  TRACK 45 AUDIO
    TITLE "0:"
    INDEX 01 01:06:23
  TRACK 46 AUDIO
    TITLE "5:cjc173_3368"
    INDEX 01 01:06:44
  TRACK 47 AUDIO
    TITLE "0:"
    INDEX 01 01:09:72
  TRACK 48 AUDIO
    TITLE "3:cjc173_3369"
    INDEX 01 01:10:44
  TRACK 49 AUDIO
    TITLE "0:"
    INDEX 01 01:11:48
  TRACK 50 AUDIO
    TITLE "4:cjc173_3370"
    INDEX 01 01:11:71
  TRACK 51 AUDIO
    TITLE "0:"
    INDEX 01 01:13:72
  TRACK 52 AUDIO
    TITLE "5:cjc173_3371"
    INDEX 01 01:14:18
  TRACK 53 AUDIO
    TITLE "0:"
    INDEX 01 01:17:54
  TRACK 54 AUDIO
    TITLE "3:cjc173_3372"
    INDEX 01 01:18:28
  TRACK 55 AUDIO
    TITLE "0:"
    INDEX 01 01:19:47
  TRACK 56 AUDIO
    TITLE "4:cjc173_3373"
    INDEX 01 01:19:67
  TRACK 57 AUDIO
    TITLE "0:"
    INDEX 01 01:23:31
  TRACK 58 AUDIO
    TITLE "5:cjc173_3374"
    INDEX 01 01:23:49
  TRACK 59 AUDIO
    TITLE "0:"
    INDEX 01 01:28:28
